<mxfile host="app.diagrams.net" modified="2023-01-23T16:47:46.841Z" agent="5.0 (Macintosh; Intel Mac OS X 10_15_7) AppleWebKit/605.1.15 (KHTML, like Gecko) Version/16.2 Safari/605.1.15" etag="DUkslFquZt27eyiN0xfk" version="20.8.10" type="github">
  <diagram name="Page-1" id="58cdce13-f638-feb5-8d6f-7d28b1aa9fa0">
    <mxGraphModel dx="608" dy="2102" grid="1" gridSize="10" guides="1" tooltips="1" connect="1" arrows="1" fold="1" page="1" pageScale="1" pageWidth="1169" pageHeight="827" background="none" math="0" shadow="0">
      <root>
        <mxCell id="0" />
        <mxCell id="1" parent="0" />
        <mxCell id="Y8kZHkkbkPLD9dmNPPJZ-6" value="Start des Programms&lt;br style=&quot;font-size: 7px;&quot;&gt;/Homescreen öffnen" style="edgeStyle=orthogonalEdgeStyle;rounded=0;orthogonalLoop=1;jettySize=auto;html=1;endArrow=openThin;endFill=0;fontSize=7;exitX=0.869;exitY=0.494;exitDx=0;exitDy=0;exitPerimeter=0;" parent="1" source="Y8kZHkkbkPLD9dmNPPJZ-82" target="Y8kZHkkbkPLD9dmNPPJZ-8" edge="1">
          <mxGeometry relative="1" as="geometry">
            <mxPoint x="-10" y="-220" as="sourcePoint" />
            <mxPoint x="165.00000000000023" y="50" as="targetPoint" />
          </mxGeometry>
        </mxCell>
        <mxCell id="Y8kZHkkbkPLD9dmNPPJZ-15" value="Optionsbutton drücken&lt;br style=&quot;font-size: 7px;&quot;&gt;&amp;nbsp;/Optionsmenü öffnen" style="edgeStyle=orthogonalEdgeStyle;rounded=0;orthogonalLoop=1;jettySize=auto;html=1;endArrow=openThin;endFill=0;fontSize=7;exitX=1;exitY=0.25;exitDx=0;exitDy=0;" parent="1" source="Y8kZHkkbkPLD9dmNPPJZ-8" edge="1">
          <mxGeometry x="-0.0526" y="15" relative="1" as="geometry">
            <mxPoint x="760" y="-225" as="targetPoint" />
            <Array as="points">
              <mxPoint x="450" y="-225" />
            </Array>
            <mxPoint as="offset" />
          </mxGeometry>
        </mxCell>
        <mxCell id="Y8kZHkkbkPLD9dmNPPJZ-22" value="Levelbutton drücken&lt;br style=&quot;font-size: 7px;&quot;&gt;/Levelmenü öffnen" style="edgeStyle=orthogonalEdgeStyle;rounded=0;orthogonalLoop=1;jettySize=auto;html=1;endArrow=openThin;endFill=0;fontSize=7;entryX=0.25;entryY=0;entryDx=0;entryDy=0;exitX=0.25;exitY=1;exitDx=0;exitDy=0;" parent="1" source="Y8kZHkkbkPLD9dmNPPJZ-8" target="Y8kZHkkbkPLD9dmNPPJZ-21" edge="1">
          <mxGeometry relative="1" as="geometry">
            <Array as="points">
              <mxPoint x="185" y="-160" />
              <mxPoint x="103" y="-160" />
            </Array>
          </mxGeometry>
        </mxCell>
        <mxCell id="Y8kZHkkbkPLD9dmNPPJZ-85" style="edgeStyle=orthogonalEdgeStyle;rounded=0;orthogonalLoop=1;jettySize=auto;html=1;entryX=1;entryY=0.5;entryDx=0;entryDy=0;fontSize=7;endArrow=openThin;endFill=0;exitX=0.25;exitY=0;exitDx=0;exitDy=0;" parent="1" source="Y8kZHkkbkPLD9dmNPPJZ-8" target="Y8kZHkkbkPLD9dmNPPJZ-84" edge="1">
          <mxGeometry relative="1" as="geometry">
            <Array as="points">
              <mxPoint x="185" y="-265" />
            </Array>
          </mxGeometry>
        </mxCell>
        <mxCell id="Y8kZHkkbkPLD9dmNPPJZ-86" value="Beenden-Button klicken&lt;br style=&quot;font-size: 7px;&quot;&gt;/Programm beenden" style="edgeLabel;html=1;align=center;verticalAlign=middle;resizable=0;points=[];fontSize=7;" parent="Y8kZHkkbkPLD9dmNPPJZ-85" vertex="1" connectable="0">
          <mxGeometry x="-0.3876" y="1" relative="1" as="geometry">
            <mxPoint x="-62" y="-1" as="offset" />
          </mxGeometry>
        </mxCell>
        <mxCell id="iM5wBfxBL-h4ycN9MEfd-19" style="edgeStyle=orthogonalEdgeStyle;rounded=0;jumpStyle=arc;orthogonalLoop=1;jettySize=auto;html=1;fontSize=6;endArrow=open;endFill=0;exitX=0.441;exitY=-0.003;exitDx=0;exitDy=0;exitPerimeter=0;" parent="1" source="Y8kZHkkbkPLD9dmNPPJZ-8" edge="1">
          <mxGeometry relative="1" as="geometry">
            <mxPoint x="360" y="-380" as="targetPoint" />
          </mxGeometry>
        </mxCell>
        <mxCell id="iM5wBfxBL-h4ycN9MEfd-22" value="&quot;eigene Level&quot;-Button drücken&lt;br&gt;/Leveleditor öffnen" style="edgeLabel;html=1;align=center;verticalAlign=middle;resizable=0;points=[];fontSize=6;" parent="iM5wBfxBL-h4ycN9MEfd-19" vertex="1" connectable="0">
          <mxGeometry x="-0.0435" y="1" relative="1" as="geometry">
            <mxPoint as="offset" />
          </mxGeometry>
        </mxCell>
        <mxCell id="Y8kZHkkbkPLD9dmNPPJZ-8" value="Homescreen" style="rounded=1;whiteSpace=wrap;html=1;fontSize=7;" parent="1" vertex="1">
          <mxGeometry x="160" y="-235" width="100" height="40" as="geometry" />
        </mxCell>
        <mxCell id="Y8kZHkkbkPLD9dmNPPJZ-68" style="edgeStyle=orthogonalEdgeStyle;rounded=0;orthogonalLoop=1;jettySize=auto;html=1;entryX=1;entryY=0.75;entryDx=0;entryDy=0;endArrow=openThin;endFill=0;fontSize=7;jumpStyle=arc;exitX=0;exitY=0.25;exitDx=0;exitDy=0;" parent="1" source="Y8kZHkkbkPLD9dmNPPJZ-14" target="Y8kZHkkbkPLD9dmNPPJZ-8" edge="1">
          <mxGeometry relative="1" as="geometry">
            <Array as="points">
              <mxPoint x="450" y="-205" />
            </Array>
          </mxGeometry>
        </mxCell>
        <mxCell id="Y8kZHkkbkPLD9dmNPPJZ-69" value="&quot;zurück&quot;-Button drücken&lt;br style=&quot;font-size: 7px;&quot;&gt;/zum Homescreen weiterleiten" style="edgeLabel;html=1;align=center;verticalAlign=middle;resizable=0;points=[];fontSize=7;" parent="Y8kZHkkbkPLD9dmNPPJZ-68" vertex="1" connectable="0">
          <mxGeometry x="-0.1215" y="-2" relative="1" as="geometry">
            <mxPoint x="-12" y="12" as="offset" />
          </mxGeometry>
        </mxCell>
        <mxCell id="Y8kZHkkbkPLD9dmNPPJZ-14" value="Optionsmenü" style="swimlane;whiteSpace=wrap;html=1;rounded=1;fontSize=7;" parent="1" vertex="1">
          <mxGeometry x="760" y="-270" width="340" height="260" as="geometry">
            <mxRectangle x="500" y="30" width="90" height="23" as="alternateBounds" />
          </mxGeometry>
        </mxCell>
        <mxCell id="Y8kZHkkbkPLD9dmNPPJZ-20" value="Passwort für Tipps eingeben" style="edgeStyle=orthogonalEdgeStyle;rounded=0;orthogonalLoop=1;jettySize=auto;html=1;endArrow=openThin;endFill=0;fontSize=7;entryX=0.5;entryY=0;entryDx=0;entryDy=0;entryPerimeter=0;" parent="Y8kZHkkbkPLD9dmNPPJZ-14" source="Y8kZHkkbkPLD9dmNPPJZ-17" target="iM5wBfxBL-h4ycN9MEfd-50" edge="1">
          <mxGeometry x="0.118" y="5" relative="1" as="geometry">
            <mxPoint as="offset" />
            <mxPoint x="135" y="125" as="targetPoint" />
          </mxGeometry>
        </mxCell>
        <mxCell id="Y8kZHkkbkPLD9dmNPPJZ-17" value="Tipps deaktiviert" style="rounded=1;whiteSpace=wrap;html=1;fontSize=7;" parent="Y8kZHkkbkPLD9dmNPPJZ-14" vertex="1">
          <mxGeometry x="80" y="35" width="110" height="40" as="geometry" />
        </mxCell>
        <mxCell id="Y8kZHkkbkPLD9dmNPPJZ-66" style="edgeStyle=orthogonalEdgeStyle;rounded=0;orthogonalLoop=1;jettySize=auto;html=1;entryX=1;entryY=0.25;entryDx=0;entryDy=0;endArrow=openThin;endFill=0;fontSize=7;exitX=1;exitY=0.5;exitDx=0;exitDy=0;jumpStyle=arc;" parent="Y8kZHkkbkPLD9dmNPPJZ-14" source="Y8kZHkkbkPLD9dmNPPJZ-19" target="Y8kZHkkbkPLD9dmNPPJZ-17" edge="1">
          <mxGeometry relative="1" as="geometry">
            <Array as="points">
              <mxPoint x="190" y="190" />
              <mxPoint x="270" y="190" />
              <mxPoint x="270" y="45" />
            </Array>
          </mxGeometry>
        </mxCell>
        <mxCell id="Y8kZHkkbkPLD9dmNPPJZ-67" value="&quot;Tipps deaktivieren&quot; klicken&lt;br style=&quot;font-size: 7px;&quot;&gt;/Tipps deaktivieren" style="edgeLabel;html=1;align=center;verticalAlign=middle;resizable=0;points=[];fontSize=7;" parent="Y8kZHkkbkPLD9dmNPPJZ-66" vertex="1" connectable="0">
          <mxGeometry x="0.1392" relative="1" as="geometry">
            <mxPoint x="10" y="60" as="offset" />
          </mxGeometry>
        </mxCell>
        <mxCell id="Y8kZHkkbkPLD9dmNPPJZ-19" value="Tipps aktiviert" style="rounded=1;whiteSpace=wrap;html=1;fontSize=7;" parent="Y8kZHkkbkPLD9dmNPPJZ-14" vertex="1">
          <mxGeometry x="80" y="175" width="110" height="50" as="geometry" />
        </mxCell>
        <mxCell id="Y8kZHkkbkPLD9dmNPPJZ-89" value="" style="edgeStyle=orthogonalEdgeStyle;rounded=0;orthogonalLoop=1;jettySize=auto;html=1;fontSize=7;endArrow=openThin;endFill=0;exitX=0.874;exitY=0.475;exitDx=0;exitDy=0;exitPerimeter=0;entryX=-0.003;entryY=0.481;entryDx=0;entryDy=0;entryPerimeter=0;" parent="Y8kZHkkbkPLD9dmNPPJZ-14" source="Y8kZHkkbkPLD9dmNPPJZ-88" target="Y8kZHkkbkPLD9dmNPPJZ-17" edge="1">
          <mxGeometry relative="1" as="geometry">
            <mxPoint x="40" y="55" as="sourcePoint" />
            <Array as="points">
              <mxPoint x="60" y="54" />
            </Array>
          </mxGeometry>
        </mxCell>
        <mxCell id="Y8kZHkkbkPLD9dmNPPJZ-88" value="" style="ellipse;html=1;shape=startState;fillColor=#000000;strokeColor=#000000;rounded=1;fontSize=7;" parent="Y8kZHkkbkPLD9dmNPPJZ-14" vertex="1">
          <mxGeometry x="10" y="40" width="30" height="30" as="geometry" />
        </mxCell>
        <mxCell id="iM5wBfxBL-h4ycN9MEfd-24" value="H" style="shape=ellipse;html=1;fontSize=18;align=center;" parent="Y8kZHkkbkPLD9dmNPPJZ-14" vertex="1">
          <mxGeometry x="290" y="35" width="40" height="40" as="geometry" />
        </mxCell>
        <mxCell id="iM5wBfxBL-h4ycN9MEfd-52" value="[Passwort richtig]&lt;br&gt;/Tipps aktivieren" style="edgeStyle=orthogonalEdgeStyle;rounded=0;jumpStyle=arc;orthogonalLoop=1;jettySize=auto;html=1;entryX=0.5;entryY=0;entryDx=0;entryDy=0;strokeWidth=1;fontSize=6;startArrow=none;startFill=0;endArrow=open;endFill=0;" parent="Y8kZHkkbkPLD9dmNPPJZ-14" source="iM5wBfxBL-h4ycN9MEfd-50" target="Y8kZHkkbkPLD9dmNPPJZ-19" edge="1">
          <mxGeometry relative="1" as="geometry" />
        </mxCell>
        <mxCell id="iM5wBfxBL-h4ycN9MEfd-53" value="[Passwort falsch]&lt;br&gt;/Fehlermeldung zurückgeben" style="edgeStyle=orthogonalEdgeStyle;rounded=0;jumpStyle=arc;orthogonalLoop=1;jettySize=auto;html=1;entryX=1;entryY=0.75;entryDx=0;entryDy=0;strokeWidth=1;fontSize=6;startArrow=none;startFill=0;endArrow=open;endFill=0;exitX=1;exitY=0.5;exitDx=0;exitDy=0;exitPerimeter=0;" parent="Y8kZHkkbkPLD9dmNPPJZ-14" source="iM5wBfxBL-h4ycN9MEfd-50" target="Y8kZHkkbkPLD9dmNPPJZ-17" edge="1">
          <mxGeometry relative="1" as="geometry">
            <Array as="points">
              <mxPoint x="220" y="130" />
              <mxPoint x="220" y="65" />
            </Array>
          </mxGeometry>
        </mxCell>
        <mxCell id="iM5wBfxBL-h4ycN9MEfd-50" value="" style="strokeWidth=1;html=1;shape=mxgraph.flowchart.decision;whiteSpace=wrap;rounded=1;fontSize=6;" parent="Y8kZHkkbkPLD9dmNPPJZ-14" vertex="1">
          <mxGeometry x="120" y="115" width="32.5" height="30" as="geometry" />
        </mxCell>
        <mxCell id="Y8kZHkkbkPLD9dmNPPJZ-24" value="Level auswählen&lt;br style=&quot;font-size: 7px;&quot;&gt;/Level starten" style="edgeStyle=orthogonalEdgeStyle;rounded=0;orthogonalLoop=1;jettySize=auto;html=1;endArrow=openThin;endFill=0;entryX=0.511;entryY=-0.001;entryDx=0;entryDy=0;fontSize=7;entryPerimeter=0;" parent="1" source="Y8kZHkkbkPLD9dmNPPJZ-21" target="Y8kZHkkbkPLD9dmNPPJZ-25" edge="1">
          <mxGeometry x="-0.284" relative="1" as="geometry">
            <mxPoint x="130" y="230" as="targetPoint" />
            <Array as="points">
              <mxPoint x="490" y="20" />
              <mxPoint x="490" y="60" />
            </Array>
            <mxPoint as="offset" />
          </mxGeometry>
        </mxCell>
        <mxCell id="iM5wBfxBL-h4ycN9MEfd-1" style="edgeStyle=orthogonalEdgeStyle;rounded=0;orthogonalLoop=1;jettySize=auto;html=1;entryX=0.5;entryY=1;entryDx=0;entryDy=0;fontSize=7;endArrow=open;endFill=0;" parent="1" source="Y8kZHkkbkPLD9dmNPPJZ-21" target="Y8kZHkkbkPLD9dmNPPJZ-8" edge="1">
          <mxGeometry relative="1" as="geometry" />
        </mxCell>
        <mxCell id="iM5wBfxBL-h4ycN9MEfd-2" value="&lt;font style=&quot;font-size: 7px;&quot;&gt;Zurück-Button drücken&lt;br style=&quot;font-size: 7px;&quot;&gt;/zum Homescreen weiterleiten&lt;/font&gt;" style="edgeLabel;html=1;align=center;verticalAlign=middle;resizable=0;points=[];fontSize=7;" parent="iM5wBfxBL-h4ycN9MEfd-1" vertex="1" connectable="0">
          <mxGeometry x="-0.1654" y="-1" relative="1" as="geometry">
            <mxPoint x="22" y="12" as="offset" />
          </mxGeometry>
        </mxCell>
        <mxCell id="Y8kZHkkbkPLD9dmNPPJZ-21" value="Levelauswahl" style="rounded=1;whiteSpace=wrap;html=1;fontSize=7;" parent="1" vertex="1">
          <mxGeometry x="75" y="-10" width="110" height="40" as="geometry" />
        </mxCell>
        <mxCell id="Y8kZHkkbkPLD9dmNPPJZ-41" style="edgeStyle=orthogonalEdgeStyle;rounded=0;orthogonalLoop=1;jettySize=auto;html=1;endArrow=openThin;endFill=0;fontSize=7;jumpStyle=arc;entryX=0.565;entryY=0.002;entryDx=0;entryDy=0;entryPerimeter=0;" parent="1" source="Y8kZHkkbkPLD9dmNPPJZ-25" target="Y8kZHkkbkPLD9dmNPPJZ-40" edge="1">
          <mxGeometry relative="1" as="geometry">
            <Array as="points" />
          </mxGeometry>
        </mxCell>
        <mxCell id="Y8kZHkkbkPLD9dmNPPJZ-42" value="Fluchtbutton klicken&lt;br style=&quot;font-size: 7px;&quot;&gt;/Ausgabe ob Flucht richtig war, Fazit anzeigen, Highscore speichern" style="edgeLabel;html=1;align=center;verticalAlign=middle;resizable=0;points=[];fontSize=7;" parent="Y8kZHkkbkPLD9dmNPPJZ-41" vertex="1" connectable="0">
          <mxGeometry x="-0.0458" y="-1" relative="1" as="geometry">
            <mxPoint as="offset" />
          </mxGeometry>
        </mxCell>
        <mxCell id="Y8kZHkkbkPLD9dmNPPJZ-70" style="edgeStyle=orthogonalEdgeStyle;rounded=0;orthogonalLoop=1;jettySize=auto;html=1;entryX=0.5;entryY=1;entryDx=0;entryDy=0;endArrow=openThin;endFill=0;fontSize=7;" parent="1" source="Y8kZHkkbkPLD9dmNPPJZ-25" target="Y8kZHkkbkPLD9dmNPPJZ-21" edge="1">
          <mxGeometry relative="1" as="geometry">
            <Array as="points">
              <mxPoint x="130" y="260" />
            </Array>
          </mxGeometry>
        </mxCell>
        <mxCell id="Y8kZHkkbkPLD9dmNPPJZ-71" value="Abbruchknopf drücken&lt;br style=&quot;font-size: 7px;&quot;&gt;/zum Homescreen zurückführen" style="edgeLabel;html=1;align=center;verticalAlign=middle;resizable=0;points=[];fontSize=7;" parent="Y8kZHkkbkPLD9dmNPPJZ-70" vertex="1" connectable="0">
          <mxGeometry x="0.4652" relative="1" as="geometry">
            <mxPoint x="30" y="5" as="offset" />
          </mxGeometry>
        </mxCell>
        <mxCell id="Y8kZHkkbkPLD9dmNPPJZ-25" value="Spielmodus" style="swimlane;whiteSpace=wrap;html=1;rounded=1;fontSize=7;" parent="1" vertex="1">
          <mxGeometry x="240" y="60" width="490" height="490" as="geometry" />
        </mxCell>
        <mxCell id="iM5wBfxBL-h4ycN9MEfd-10" style="edgeStyle=orthogonalEdgeStyle;rounded=0;orthogonalLoop=1;jettySize=auto;html=1;fontSize=6;endArrow=open;endFill=0;entryX=0;entryY=0.5;entryDx=0;entryDy=0;exitX=0.883;exitY=0.496;exitDx=0;exitDy=0;exitPerimeter=0;entryPerimeter=0;" parent="Y8kZHkkbkPLD9dmNPPJZ-25" source="Y8kZHkkbkPLD9dmNPPJZ-90" target="iM5wBfxBL-h4ycN9MEfd-54" edge="1">
          <mxGeometry relative="1" as="geometry">
            <mxPoint x="140" y="48" as="targetPoint" />
            <Array as="points" />
          </mxGeometry>
        </mxCell>
        <mxCell id="iM5wBfxBL-h4ycN9MEfd-11" value="/Level&amp;nbsp; initiieren" style="edgeLabel;html=1;align=center;verticalAlign=middle;resizable=0;points=[];fontSize=6;" parent="iM5wBfxBL-h4ycN9MEfd-10" vertex="1" connectable="0">
          <mxGeometry x="-0.3562" y="1" relative="1" as="geometry">
            <mxPoint as="offset" />
          </mxGeometry>
        </mxCell>
        <mxCell id="Y8kZHkkbkPLD9dmNPPJZ-90" value="" style="ellipse;html=1;shape=startState;fillColor=#000000;strokeColor=#000000;rounded=1;fontSize=7;" parent="Y8kZHkkbkPLD9dmNPPJZ-25" vertex="1">
          <mxGeometry x="20" y="33" width="30" height="30" as="geometry" />
        </mxCell>
        <mxCell id="iM5wBfxBL-h4ycN9MEfd-6" value="Rucksack" style="swimlane;fontSize=6;rounded=1;swimlaneLine=1;" parent="Y8kZHkkbkPLD9dmNPPJZ-25" vertex="1">
          <mxGeometry x="20" y="100" width="400" height="260" as="geometry" />
        </mxCell>
        <mxCell id="Y8kZHkkbkPLD9dmNPPJZ-29" value="Rucksack leer" style="rounded=1;whiteSpace=wrap;html=1;fontSize=7;" parent="iM5wBfxBL-h4ycN9MEfd-6" vertex="1">
          <mxGeometry x="60" y="30" width="120" height="40" as="geometry" />
        </mxCell>
        <mxCell id="Y8kZHkkbkPLD9dmNPPJZ-95" style="edgeStyle=orthogonalEdgeStyle;sketch=0;jumpStyle=arc;orthogonalLoop=1;jettySize=auto;html=1;fontSize=7;endArrow=open;endFill=0;rounded=0;entryX=0.75;entryY=1;entryDx=0;entryDy=0;" parent="iM5wBfxBL-h4ycN9MEfd-6" source="Y8kZHkkbkPLD9dmNPPJZ-30" target="Y8kZHkkbkPLD9dmNPPJZ-29" edge="1">
          <mxGeometry relative="1" as="geometry">
            <mxPoint x="285" y="70" as="targetPoint" />
            <Array as="points">
              <mxPoint x="215" y="80" />
              <mxPoint x="150" y="80" />
            </Array>
          </mxGeometry>
        </mxCell>
        <mxCell id="Y8kZHkkbkPLD9dmNPPJZ-96" value="Gegenstand im Rucksack anklicken [nicht Greedy]&lt;br style=&quot;font-size: 7px;&quot;&gt;/Gegenstand entfernen" style="edgeLabel;html=1;align=center;verticalAlign=middle;resizable=0;points=[];fontSize=7;" parent="Y8kZHkkbkPLD9dmNPPJZ-95" vertex="1" connectable="0">
          <mxGeometry x="0.3183" relative="1" as="geometry">
            <mxPoint x="40" y="20" as="offset" />
          </mxGeometry>
        </mxCell>
        <mxCell id="Y8kZHkkbkPLD9dmNPPJZ-30" value="Rucksack befüllt" style="rounded=1;whiteSpace=wrap;html=1;fontSize=7;" parent="iM5wBfxBL-h4ycN9MEfd-6" vertex="1">
          <mxGeometry x="110" y="190" width="120" height="40" as="geometry" />
        </mxCell>
        <mxCell id="Y8kZHkkbkPLD9dmNPPJZ-58" value="Gegenstand entfernen [keine Gegenstände im Rucksack, nicht Greedy]" style="edgeStyle=orthogonalEdgeStyle;orthogonalLoop=1;jettySize=auto;html=1;endArrow=openThin;endFill=0;fontSize=7;curved=1;" parent="iM5wBfxBL-h4ycN9MEfd-6" source="Y8kZHkkbkPLD9dmNPPJZ-29" target="Y8kZHkkbkPLD9dmNPPJZ-29" edge="1">
          <mxGeometry y="100" relative="1" as="geometry">
            <mxPoint as="offset" />
          </mxGeometry>
        </mxCell>
        <mxCell id="Y8kZHkkbkPLD9dmNPPJZ-31" value="&lt;font style=&quot;font-size: 5px;&quot;&gt;freien Gegenstand anklicken&lt;br style=&quot;&quot;&gt;&amp;nbsp;[Gewicht des Gegenstand &amp;lt; Restkapazität]&lt;br style=&quot;&quot;&gt;/Gegenstand in Rucksack einfügen, Restkapazität berechnen, Counter++&lt;/font&gt;" style="edgeStyle=orthogonalEdgeStyle;rounded=0;orthogonalLoop=1;jettySize=auto;html=1;endArrow=openThin;endFill=0;fontSize=7;exitX=0.25;exitY=1;exitDx=0;exitDy=0;" parent="iM5wBfxBL-h4ycN9MEfd-6" source="Y8kZHkkbkPLD9dmNPPJZ-29" target="Y8kZHkkbkPLD9dmNPPJZ-30" edge="1">
          <mxGeometry x="-0.7" y="-20" relative="1" as="geometry">
            <Array as="points">
              <mxPoint x="90" y="100" />
              <mxPoint x="170" y="100" />
            </Array>
            <mxPoint as="offset" />
          </mxGeometry>
        </mxCell>
        <mxCell id="Y8kZHkkbkPLD9dmNPPJZ-80" value="&lt;font style=&quot;font-size: 6px;&quot;&gt;&lt;span style=&quot;caret-color: rgb(0, 0, 0); color: rgb(0, 0, 0); font-family: Helvetica; font-style: normal; font-variant-caps: normal; font-weight: 400; letter-spacing: normal; text-align: center; text-indent: 0px; text-transform: none; word-spacing: 0px; -webkit-text-stroke-width: 0px; background-color: rgb(255, 255, 255); text-decoration: none; float: none; display: inline !important;&quot;&gt;freien Gegenstand anklicken [Gewicht des Gegenstand &amp;lt; Restkapazität]&lt;/span&gt;&lt;br style=&quot;caret-color: rgb(0, 0, 0); color: rgb(0, 0, 0); font-family: Helvetica; font-style: normal; font-variant-caps: normal; font-weight: 400; letter-spacing: normal; text-align: center; text-indent: 0px; text-transform: none; word-spacing: 0px; -webkit-text-stroke-width: 0px; background-color: rgb(255, 255, 255); text-decoration: none;&quot;&gt;&lt;span style=&quot;caret-color: rgb(0, 0, 0); color: rgb(0, 0, 0); font-family: Helvetica; font-style: normal; font-variant-caps: normal; font-weight: 400; letter-spacing: normal; text-align: center; text-indent: 0px; text-transform: none; word-spacing: 0px; -webkit-text-stroke-width: 0px; background-color: rgb(255, 255, 255); text-decoration: none; float: none; display: inline !important;&quot;&gt;/Gegenstand in Rucksack einfügen, Restkapazität berechnen, Counter++&lt;/span&gt;&lt;/font&gt;" style="edgeStyle=orthogonalEdgeStyle;orthogonalLoop=1;jettySize=auto;html=1;entryX=0;entryY=0.5;entryDx=0;entryDy=0;fontSize=7;endArrow=openThin;endFill=0;curved=1;exitX=0.063;exitY=0.992;exitDx=0;exitDy=0;exitPerimeter=0;" parent="iM5wBfxBL-h4ycN9MEfd-6" source="Y8kZHkkbkPLD9dmNPPJZ-30" target="Y8kZHkkbkPLD9dmNPPJZ-30" edge="1">
          <mxGeometry x="-0.3647" y="10" relative="1" as="geometry">
            <Array as="points">
              <mxPoint x="118" y="240" />
              <mxPoint x="90" y="240" />
              <mxPoint x="90" y="210" />
            </Array>
            <mxPoint as="offset" />
          </mxGeometry>
        </mxCell>
        <mxCell id="Y8kZHkkbkPLD9dmNPPJZ-73" style="edgeStyle=orthogonalEdgeStyle;orthogonalLoop=1;jettySize=auto;html=1;endArrow=openThin;endFill=0;fontSize=7;entryX=0.996;entryY=0.618;entryDx=0;entryDy=0;entryPerimeter=0;curved=1;" parent="iM5wBfxBL-h4ycN9MEfd-6" edge="1">
          <mxGeometry relative="1" as="geometry">
            <mxPoint x="230" y="202.64" as="sourcePoint" />
            <mxPoint x="229.51999999999998" y="217.36" as="targetPoint" />
            <Array as="points">
              <mxPoint x="245" y="202.64" />
              <mxPoint x="245" y="217.64" />
            </Array>
          </mxGeometry>
        </mxCell>
        <mxCell id="Y8kZHkkbkPLD9dmNPPJZ-74" value="freien Gegenstand anklicken &lt;br&gt;[Gegenstand &amp;gt; Restkapazität]&lt;br style=&quot;font-size: 7px;&quot;&gt;/Fehlermeldung ausgeben" style="edgeLabel;html=1;align=center;verticalAlign=middle;resizable=0;points=[];fontSize=7;" parent="Y8kZHkkbkPLD9dmNPPJZ-73" vertex="1" connectable="0">
          <mxGeometry x="-0.1652" y="3" relative="1" as="geometry">
            <mxPoint x="52" y="3" as="offset" />
          </mxGeometry>
        </mxCell>
        <mxCell id="iM5wBfxBL-h4ycN9MEfd-9" style="edgeStyle=orthogonalEdgeStyle;rounded=0;orthogonalLoop=1;jettySize=auto;html=1;fontSize=6;endArrow=open;endFill=0;exitX=0.86;exitY=0.504;exitDx=0;exitDy=0;exitPerimeter=0;" parent="iM5wBfxBL-h4ycN9MEfd-6" source="iM5wBfxBL-h4ycN9MEfd-8" target="Y8kZHkkbkPLD9dmNPPJZ-29" edge="1">
          <mxGeometry relative="1" as="geometry" />
        </mxCell>
        <mxCell id="iM5wBfxBL-h4ycN9MEfd-8" value="" style="ellipse;html=1;shape=startState;fillColor=#000000;strokeColor=#000000;rounded=1;fontSize=7;" parent="iM5wBfxBL-h4ycN9MEfd-6" vertex="1">
          <mxGeometry x="10" y="35" width="30" height="30" as="geometry" />
        </mxCell>
        <mxCell id="iM5wBfxBL-h4ycN9MEfd-49" value="H*" style="shape=ellipse;html=1;fontSize=18;align=center;rounded=1;" parent="iM5wBfxBL-h4ycN9MEfd-6" vertex="1">
          <mxGeometry x="340" y="70" width="40" height="40" as="geometry" />
        </mxCell>
        <mxCell id="iM5wBfxBL-h4ycN9MEfd-12" value="Tipps" style="rounded=1;whiteSpace=wrap;html=1;fontSize=6;" parent="Y8kZHkkbkPLD9dmNPPJZ-25" vertex="1">
          <mxGeometry x="150" y="417" width="100" height="23" as="geometry" />
        </mxCell>
        <mxCell id="iM5wBfxBL-h4ycN9MEfd-13" style="edgeStyle=orthogonalEdgeStyle;rounded=0;jumpStyle=arc;orthogonalLoop=1;jettySize=auto;html=1;fontSize=6;endArrow=open;endFill=0;" parent="Y8kZHkkbkPLD9dmNPPJZ-25" edge="1">
          <mxGeometry relative="1" as="geometry">
            <mxPoint x="170" y="360" as="sourcePoint" />
            <Array as="points">
              <mxPoint x="172" y="360" />
              <mxPoint x="172" y="380" />
              <mxPoint x="172" y="380" />
            </Array>
            <mxPoint x="172" y="417" as="targetPoint" />
          </mxGeometry>
        </mxCell>
        <mxCell id="iM5wBfxBL-h4ycN9MEfd-14" value="Tipp-Button klicken [Tipps aktiviert]&lt;br&gt;/Tipps anzeigen" style="edgeLabel;html=1;align=center;verticalAlign=middle;resizable=0;points=[];fontSize=6;" parent="iM5wBfxBL-h4ycN9MEfd-13" vertex="1" connectable="0">
          <mxGeometry x="0.4484" y="1" relative="1" as="geometry">
            <mxPoint x="-53" y="2" as="offset" />
          </mxGeometry>
        </mxCell>
        <mxCell id="iM5wBfxBL-h4ycN9MEfd-38" value="[ist kein Erklärlevel]" style="edgeStyle=orthogonalEdgeStyle;rounded=0;jumpStyle=arc;orthogonalLoop=1;jettySize=auto;html=1;strokeWidth=1;fontSize=5;startArrow=none;startFill=0;endArrow=open;endFill=0;exitX=0.5;exitY=1;exitDx=0;exitDy=0;exitPerimeter=0;entryX=0.25;entryY=0;entryDx=0;entryDy=0;" parent="Y8kZHkkbkPLD9dmNPPJZ-25" source="iM5wBfxBL-h4ycN9MEfd-54" target="iM5wBfxBL-h4ycN9MEfd-6" edge="1">
          <mxGeometry x="-0.3049" y="-3" relative="1" as="geometry">
            <mxPoint x="185" y="65" as="sourcePoint" />
            <mxPoint as="offset" />
          </mxGeometry>
        </mxCell>
        <mxCell id="iM5wBfxBL-h4ycN9MEfd-40" value="[ist Erklärlevel]&lt;br&gt;/Erklärung anzeigen" style="edgeStyle=orthogonalEdgeStyle;rounded=0;jumpStyle=arc;orthogonalLoop=1;jettySize=auto;html=1;strokeWidth=1;fontSize=6;startArrow=none;startFill=0;endArrow=open;endFill=0;exitX=1;exitY=0.5;exitDx=0;exitDy=0;exitPerimeter=0;" parent="Y8kZHkkbkPLD9dmNPPJZ-25" source="iM5wBfxBL-h4ycN9MEfd-54" target="iM5wBfxBL-h4ycN9MEfd-39" edge="1">
          <mxGeometry relative="1" as="geometry">
            <mxPoint x="230" y="48" as="sourcePoint" />
          </mxGeometry>
        </mxCell>
        <mxCell id="iM5wBfxBL-h4ycN9MEfd-41" value="Erklärung fertig gelesen und Bestätigungsknopf drücken&lt;br&gt;/Weiterleitung zum Level" style="edgeStyle=orthogonalEdgeStyle;rounded=0;jumpStyle=arc;orthogonalLoop=1;jettySize=auto;html=1;entryX=0.913;entryY=0.004;entryDx=0;entryDy=0;entryPerimeter=0;strokeWidth=1;fontSize=6;startArrow=none;startFill=0;endArrow=open;endFill=0;" parent="Y8kZHkkbkPLD9dmNPPJZ-25" source="iM5wBfxBL-h4ycN9MEfd-39" target="iM5wBfxBL-h4ycN9MEfd-6" edge="1">
          <mxGeometry relative="1" as="geometry" />
        </mxCell>
        <mxCell id="iM5wBfxBL-h4ycN9MEfd-39" value="Erklärmodus" style="rounded=1;whiteSpace=wrap;html=1;fontSize=6;" parent="Y8kZHkkbkPLD9dmNPPJZ-25" vertex="1">
          <mxGeometry x="330" y="28.5" width="110" height="39" as="geometry" />
        </mxCell>
        <mxCell id="iM5wBfxBL-h4ycN9MEfd-54" value="" style="strokeWidth=1;html=1;shape=mxgraph.flowchart.decision;whiteSpace=wrap;rounded=1;fontSize=6;" parent="Y8kZHkkbkPLD9dmNPPJZ-25" vertex="1">
          <mxGeometry x="140" y="33" width="30" height="30" as="geometry" />
        </mxCell>
        <mxCell id="Y8kZHkkbkPLD9dmNPPJZ-47" style="edgeStyle=orthogonalEdgeStyle;rounded=0;orthogonalLoop=1;jettySize=auto;html=1;entryX=0.25;entryY=1;entryDx=0;entryDy=0;endArrow=openThin;endFill=0;fontSize=7;" parent="1" source="Y8kZHkkbkPLD9dmNPPJZ-40" target="Y8kZHkkbkPLD9dmNPPJZ-21" edge="1">
          <mxGeometry relative="1" as="geometry">
            <Array as="points">
              <mxPoint x="102" y="650" />
              <mxPoint x="102" y="50" />
            </Array>
          </mxGeometry>
        </mxCell>
        <mxCell id="Y8kZHkkbkPLD9dmNPPJZ-48" value="Auf Level beenden klicken&lt;br style=&quot;font-size: 7px;&quot;&gt;/Transport zurück zur Levelauswahl" style="edgeLabel;html=1;align=center;verticalAlign=middle;resizable=0;points=[];fontSize=7;" parent="Y8kZHkkbkPLD9dmNPPJZ-47" vertex="1" connectable="0">
          <mxGeometry x="-0.1355" y="2" relative="1" as="geometry">
            <mxPoint as="offset" />
          </mxGeometry>
        </mxCell>
        <mxCell id="Y8kZHkkbkPLD9dmNPPJZ-52" style="edgeStyle=orthogonalEdgeStyle;rounded=0;orthogonalLoop=1;jettySize=auto;html=1;endArrow=openThin;endFill=0;fontSize=7;exitX=1;exitY=0.5;exitDx=0;exitDy=0;" parent="1" source="Y8kZHkkbkPLD9dmNPPJZ-40" edge="1">
          <mxGeometry relative="1" as="geometry">
            <mxPoint x="610" y="550" as="targetPoint" />
            <Array as="points">
              <mxPoint x="610" y="660" />
              <mxPoint x="610" y="550" />
            </Array>
          </mxGeometry>
        </mxCell>
        <mxCell id="Y8kZHkkbkPLD9dmNPPJZ-53" value="&quot;nächstes Level&quot; bzw. &quot;Nochmal spielen&quot;-Button klicken&lt;br style=&quot;font-size: 7px;&quot;&gt;/Level laden" style="edgeLabel;html=1;align=center;verticalAlign=middle;resizable=0;points=[];fontSize=7;" parent="Y8kZHkkbkPLD9dmNPPJZ-52" vertex="1" connectable="0">
          <mxGeometry x="-0.4056" y="-4" relative="1" as="geometry">
            <mxPoint x="80" y="-44" as="offset" />
          </mxGeometry>
        </mxCell>
        <mxCell id="Y8kZHkkbkPLD9dmNPPJZ-40" value="Flucht" style="rounded=1;whiteSpace=wrap;html=1;fontSize=7;" parent="1" vertex="1">
          <mxGeometry x="430" y="630" width="105" height="60" as="geometry" />
        </mxCell>
        <mxCell id="Y8kZHkkbkPLD9dmNPPJZ-82" value="" style="ellipse;html=1;shape=startState;fillColor=#000000;strokeColor=#000000;rounded=1;fontSize=7;" parent="1" vertex="1">
          <mxGeometry x="20" y="-230" width="30" height="30" as="geometry" />
        </mxCell>
        <mxCell id="Y8kZHkkbkPLD9dmNPPJZ-84" value="" style="ellipse;html=1;shape=endState;fillColor=#000000;strokeColor=#000000;rounded=1;fontSize=7;" parent="1" vertex="1">
          <mxGeometry x="20" y="-280" width="30" height="30" as="geometry" />
        </mxCell>
        <mxCell id="iM5wBfxBL-h4ycN9MEfd-15" style="edgeStyle=orthogonalEdgeStyle;rounded=0;jumpStyle=arc;orthogonalLoop=1;jettySize=auto;html=1;fontSize=6;endArrow=open;endFill=0;exitX=0.661;exitY=-0.008;exitDx=0;exitDy=0;exitPerimeter=0;" parent="1" source="iM5wBfxBL-h4ycN9MEfd-12" edge="1">
          <mxGeometry relative="1" as="geometry">
            <mxPoint x="469" y="420" as="targetPoint" />
            <Array as="points">
              <mxPoint x="469" y="440" />
              <mxPoint x="469" y="440" />
            </Array>
          </mxGeometry>
        </mxCell>
        <mxCell id="iM5wBfxBL-h4ycN9MEfd-16" value="Zurück-Taste drücken&lt;br&gt;/Tipps ausblenden" style="edgeLabel;html=1;align=center;verticalAlign=middle;resizable=0;points=[];fontSize=6;" parent="iM5wBfxBL-h4ycN9MEfd-15" vertex="1" connectable="0">
          <mxGeometry x="0.2184" y="1" relative="1" as="geometry">
            <mxPoint x="32" y="13" as="offset" />
          </mxGeometry>
        </mxCell>
        <mxCell id="iM5wBfxBL-h4ycN9MEfd-18" value="Leveleditor" style="swimlane;rounded=1;fontSize=6;" parent="1" vertex="1">
          <mxGeometry x="160" y="-900" width="590" height="520" as="geometry">
            <mxRectangle x="220" y="-800" width="70" height="23" as="alternateBounds" />
          </mxGeometry>
        </mxCell>
        <mxCell id="iM5wBfxBL-h4ycN9MEfd-46" style="edgeStyle=orthogonalEdgeStyle;rounded=0;jumpStyle=arc;orthogonalLoop=1;jettySize=auto;html=1;strokeWidth=1;fontSize=6;startArrow=none;startFill=0;endArrow=open;endFill=0;" parent="iM5wBfxBL-h4ycN9MEfd-18" target="iM5wBfxBL-h4ycN9MEfd-45" edge="1">
          <mxGeometry relative="1" as="geometry">
            <mxPoint x="40" y="40" as="sourcePoint" />
          </mxGeometry>
        </mxCell>
        <mxCell id="iM5wBfxBL-h4ycN9MEfd-98" value="" style="edgeStyle=orthogonalEdgeStyle;rounded=0;jumpStyle=arc;orthogonalLoop=1;jettySize=auto;html=1;strokeWidth=1;fontSize=6;startArrow=none;startFill=0;endArrow=open;endFill=0;exitX=0.901;exitY=0.505;exitDx=0;exitDy=0;exitPerimeter=0;" parent="iM5wBfxBL-h4ycN9MEfd-18" source="iM5wBfxBL-h4ycN9MEfd-43" target="iM5wBfxBL-h4ycN9MEfd-45" edge="1">
          <mxGeometry relative="1" as="geometry" />
        </mxCell>
        <mxCell id="iM5wBfxBL-h4ycN9MEfd-43" value="" style="ellipse;html=1;shape=startState;fillColor=#000000;strokeColor=#000000;rounded=1;fontSize=7;" parent="iM5wBfxBL-h4ycN9MEfd-18" vertex="1">
          <mxGeometry x="10" y="25" width="30" height="30" as="geometry" />
        </mxCell>
        <mxCell id="iM5wBfxBL-h4ycN9MEfd-59" value="&quot;eigenes Item erstellen&quot;-Button klicken" style="edgeStyle=orthogonalEdgeStyle;rounded=0;jumpStyle=arc;orthogonalLoop=1;jettySize=auto;html=1;entryX=0.75;entryY=0;entryDx=0;entryDy=0;strokeWidth=1;fontSize=6;startArrow=none;startFill=0;endArrow=open;endFill=0;exitX=0.75;exitY=1;exitDx=0;exitDy=0;" parent="iM5wBfxBL-h4ycN9MEfd-18" source="iM5wBfxBL-h4ycN9MEfd-45" target="iM5wBfxBL-h4ycN9MEfd-64" edge="1">
          <mxGeometry x="0.1392" relative="1" as="geometry">
            <mxPoint x="110" y="130" as="targetPoint" />
            <mxPoint as="offset" />
            <Array as="points">
              <mxPoint x="120" y="55" />
              <mxPoint x="120" y="128" />
              <mxPoint x="300" y="128" />
            </Array>
          </mxGeometry>
        </mxCell>
        <mxCell id="iM5wBfxBL-h4ycN9MEfd-83" value="Item auswählen" style="edgeStyle=orthogonalEdgeStyle;rounded=0;jumpStyle=arc;orthogonalLoop=1;jettySize=auto;html=1;entryX=0.004;entryY=0.183;entryDx=0;entryDy=0;strokeWidth=1;fontSize=6;startArrow=none;startFill=0;endArrow=open;endFill=0;entryPerimeter=0;" parent="iM5wBfxBL-h4ycN9MEfd-18" source="iM5wBfxBL-h4ycN9MEfd-45" target="iM5wBfxBL-h4ycN9MEfd-61" edge="1">
          <mxGeometry x="-0.1482" relative="1" as="geometry">
            <Array as="points">
              <mxPoint x="185" y="30" />
            </Array>
            <mxPoint as="offset" />
          </mxGeometry>
        </mxCell>
        <mxCell id="iM5wBfxBL-h4ycN9MEfd-100" value="&quot;Level speichern&quot;- Button klicken [Itemanzahl &amp;gt; 0]&lt;br&gt;/Level speichern, Ausgabe für Erfolg" style="edgeStyle=orthogonalEdgeStyle;rounded=0;jumpStyle=arc;orthogonalLoop=1;jettySize=auto;html=1;strokeWidth=1;fontSize=6;startArrow=none;startFill=0;endArrow=open;endFill=0;exitX=1;exitY=0.75;exitDx=0;exitDy=0;entryX=0.305;entryY=-0.055;entryDx=0;entryDy=0;entryPerimeter=0;" parent="iM5wBfxBL-h4ycN9MEfd-18" source="iM5wBfxBL-h4ycN9MEfd-45" target="iM5wBfxBL-h4ycN9MEfd-48" edge="1">
          <mxGeometry x="-0.1565" relative="1" as="geometry">
            <mxPoint x="430" y="210" as="targetPoint" />
            <Array as="points">
              <mxPoint x="190" y="47" />
              <mxPoint x="190" y="70" />
              <mxPoint x="430" y="70" />
              <mxPoint x="430" y="210" />
              <mxPoint x="429" y="210" />
            </Array>
            <mxPoint as="offset" />
          </mxGeometry>
        </mxCell>
        <mxCell id="GtZbbGRYXzcYxVhvn1fU-4" style="edgeStyle=orthogonalEdgeStyle;rounded=0;orthogonalLoop=1;jettySize=auto;html=1;entryX=0;entryY=0.75;entryDx=0;entryDy=0;fontSize=6;endArrow=open;endFill=0;exitX=0.75;exitY=1;exitDx=0;exitDy=0;" parent="iM5wBfxBL-h4ycN9MEfd-18" source="iM5wBfxBL-h4ycN9MEfd-45" target="GtZbbGRYXzcYxVhvn1fU-3" edge="1">
          <mxGeometry relative="1" as="geometry">
            <Array as="points">
              <mxPoint x="130" y="105" />
            </Array>
          </mxGeometry>
        </mxCell>
        <mxCell id="GtZbbGRYXzcYxVhvn1fU-5" value="Zahl für Rucksackgröße eingeben&lt;br&gt;/Rucksackgröße verändern" style="edgeLabel;html=1;align=center;verticalAlign=middle;resizable=0;points=[];fontSize=6;" parent="GtZbbGRYXzcYxVhvn1fU-4" vertex="1" connectable="0">
          <mxGeometry x="0.1765" relative="1" as="geometry">
            <mxPoint as="offset" />
          </mxGeometry>
        </mxCell>
        <mxCell id="iM5wBfxBL-h4ycN9MEfd-45" value="Editorseite" style="rounded=1;whiteSpace=wrap;html=1;fontSize=6;" parent="iM5wBfxBL-h4ycN9MEfd-18" vertex="1">
          <mxGeometry x="70" y="25" width="80" height="30" as="geometry" />
        </mxCell>
        <mxCell id="iM5wBfxBL-h4ycN9MEfd-48" value="Level generiert" style="rounded=1;whiteSpace=wrap;html=1;fontSize=6;" parent="iM5wBfxBL-h4ycN9MEfd-18" vertex="1">
          <mxGeometry x="405" y="310" width="80" height="30" as="geometry" />
        </mxCell>
        <mxCell id="iM5wBfxBL-h4ycN9MEfd-85" value="Item editieren&lt;br&gt;/Itemeditor aufrufen" style="edgeStyle=orthogonalEdgeStyle;rounded=0;jumpStyle=arc;orthogonalLoop=1;jettySize=auto;html=1;entryX=0;entryY=0.5;entryDx=0;entryDy=0;strokeWidth=1;fontSize=6;startArrow=none;startFill=0;endArrow=open;endFill=0;" parent="iM5wBfxBL-h4ycN9MEfd-18" source="iM5wBfxBL-h4ycN9MEfd-61" target="iM5wBfxBL-h4ycN9MEfd-84" edge="1">
          <mxGeometry relative="1" as="geometry" />
        </mxCell>
        <mxCell id="iM5wBfxBL-h4ycN9MEfd-61" value="Itemauswahl" style="rounded=1;whiteSpace=wrap;html=1;strokeWidth=1;fontSize=6;" parent="iM5wBfxBL-h4ycN9MEfd-18" vertex="1">
          <mxGeometry x="220" y="25" width="110" height="25" as="geometry" />
        </mxCell>
        <mxCell id="iM5wBfxBL-h4ycN9MEfd-90" value="&quot;Abbrechen&quot;-Button klicken&lt;br&gt;/Editorseite öffnen" style="edgeStyle=orthogonalEdgeStyle;rounded=0;jumpStyle=arc;orthogonalLoop=1;jettySize=auto;html=1;entryX=0.472;entryY=1.007;entryDx=0;entryDy=0;strokeWidth=1;fontSize=6;startArrow=none;startFill=0;endArrow=open;endFill=0;exitX=0.25;exitY=0;exitDx=0;exitDy=0;entryPerimeter=0;" parent="iM5wBfxBL-h4ycN9MEfd-18" source="iM5wBfxBL-h4ycN9MEfd-64" target="iM5wBfxBL-h4ycN9MEfd-45" edge="1">
          <mxGeometry x="-0.6838" y="-42" relative="1" as="geometry">
            <Array as="points">
              <mxPoint x="108" y="110" />
              <mxPoint x="108" y="110" />
            </Array>
            <mxPoint as="offset" />
          </mxGeometry>
        </mxCell>
        <mxCell id="iM5wBfxBL-h4ycN9MEfd-64" value="Itemerstellung" style="swimlane;rounded=1;strokeWidth=1;fontSize=6;" parent="iM5wBfxBL-h4ycN9MEfd-18" vertex="1">
          <mxGeometry x="30" y="180" width="360" height="310" as="geometry" />
        </mxCell>
        <mxCell id="iM5wBfxBL-h4ycN9MEfd-78" style="edgeStyle=orthogonalEdgeStyle;rounded=0;jumpStyle=arc;orthogonalLoop=1;jettySize=auto;html=1;entryX=0.05;entryY=0.902;entryDx=0;entryDy=0;entryPerimeter=0;strokeWidth=1;fontSize=6;startArrow=none;startFill=0;endArrow=open;endFill=0;" parent="iM5wBfxBL-h4ycN9MEfd-64" source="iM5wBfxBL-h4ycN9MEfd-63" target="iM5wBfxBL-h4ycN9MEfd-74" edge="1">
          <mxGeometry relative="1" as="geometry">
            <Array as="points">
              <mxPoint x="50" y="155" />
              <mxPoint x="118" y="155" />
              <mxPoint x="118" y="165" />
            </Array>
          </mxGeometry>
        </mxCell>
        <mxCell id="iM5wBfxBL-h4ycN9MEfd-63" value="Bild geändert" style="rounded=1;whiteSpace=wrap;html=1;strokeWidth=1;fontSize=6;" parent="iM5wBfxBL-h4ycN9MEfd-64" vertex="1">
          <mxGeometry x="10" y="115" width="80" height="30" as="geometry" />
        </mxCell>
        <mxCell id="iM5wBfxBL-h4ycN9MEfd-67" style="edgeStyle=orthogonalEdgeStyle;rounded=0;jumpStyle=arc;orthogonalLoop=1;jettySize=auto;html=1;entryX=0.191;entryY=0.466;entryDx=0;entryDy=0;entryPerimeter=0;strokeWidth=1;fontSize=6;startArrow=none;startFill=0;endArrow=open;endFill=0;exitX=0.877;exitY=0.498;exitDx=0;exitDy=0;exitPerimeter=0;" parent="iM5wBfxBL-h4ycN9MEfd-64" source="iM5wBfxBL-h4ycN9MEfd-65" target="iM5wBfxBL-h4ycN9MEfd-66" edge="1">
          <mxGeometry relative="1" as="geometry">
            <Array as="points">
              <mxPoint x="36" y="40" />
              <mxPoint x="153" y="40" />
            </Array>
          </mxGeometry>
        </mxCell>
        <mxCell id="iM5wBfxBL-h4ycN9MEfd-65" value="" style="ellipse;html=1;shape=startState;fillColor=#000000;strokeColor=#000000;rounded=1;fontSize=7;" parent="iM5wBfxBL-h4ycN9MEfd-64" vertex="1">
          <mxGeometry x="10" y="30" width="30" height="30" as="geometry" />
        </mxCell>
        <mxCell id="iM5wBfxBL-h4ycN9MEfd-68" value="Bild ändern&lt;br&gt;/Bild speichern" style="edgeStyle=orthogonalEdgeStyle;rounded=0;jumpStyle=arc;orthogonalLoop=1;jettySize=auto;html=1;strokeWidth=1;fontSize=6;startArrow=none;startFill=0;endArrow=open;endFill=0;exitX=0.956;exitY=0.874;exitDx=0;exitDy=0;exitPerimeter=0;" parent="iM5wBfxBL-h4ycN9MEfd-64" source="iM5wBfxBL-h4ycN9MEfd-66" target="iM5wBfxBL-h4ycN9MEfd-63" edge="1">
          <mxGeometry relative="1" as="geometry">
            <mxPoint x="120" y="67" as="sourcePoint" />
            <Array as="points">
              <mxPoint x="120" y="91" />
              <mxPoint x="50" y="91" />
            </Array>
          </mxGeometry>
        </mxCell>
        <mxCell id="iM5wBfxBL-h4ycN9MEfd-71" value="Gewicht eingeben&lt;br&gt;/Gewicht speichern" style="edgeStyle=orthogonalEdgeStyle;rounded=0;jumpStyle=arc;orthogonalLoop=1;jettySize=auto;html=1;entryX=0.5;entryY=0;entryDx=0;entryDy=0;strokeWidth=1;fontSize=6;startArrow=none;startFill=0;endArrow=open;endFill=0;exitX=0;exitY=0.5;exitDx=0;exitDy=0;" parent="iM5wBfxBL-h4ycN9MEfd-64" target="iM5wBfxBL-h4ycN9MEfd-69" edge="1" source="0WxSvdHIYXs-hOeiicQz-1">
          <mxGeometry relative="1" as="geometry">
            <mxPoint x="150" y="75" as="sourcePoint" />
          </mxGeometry>
        </mxCell>
        <mxCell id="iM5wBfxBL-h4ycN9MEfd-72" style="edgeStyle=orthogonalEdgeStyle;rounded=0;jumpStyle=arc;orthogonalLoop=1;jettySize=auto;html=1;entryX=0.569;entryY=-0.001;entryDx=0;entryDy=0;strokeWidth=1;fontSize=6;startArrow=none;startFill=0;endArrow=open;endFill=0;entryPerimeter=0;" parent="iM5wBfxBL-h4ycN9MEfd-64" target="iM5wBfxBL-h4ycN9MEfd-70" edge="1">
          <mxGeometry relative="1" as="geometry">
            <mxPoint x="181" y="75" as="sourcePoint" />
            <Array as="points">
              <mxPoint x="181" y="95" />
              <mxPoint x="232" y="95" />
              <mxPoint x="232" y="115" />
            </Array>
          </mxGeometry>
        </mxCell>
        <mxCell id="iM5wBfxBL-h4ycN9MEfd-73" value="Wert eingeben&lt;br&gt;/Wert speichern" style="edgeLabel;html=1;align=center;verticalAlign=middle;resizable=0;points=[];fontSize=6;" parent="iM5wBfxBL-h4ycN9MEfd-72" vertex="1" connectable="0">
          <mxGeometry x="0.3074" y="1" relative="1" as="geometry">
            <mxPoint x="-16" y="6" as="offset" />
          </mxGeometry>
        </mxCell>
        <mxCell id="iM5wBfxBL-h4ycN9MEfd-89" style="edgeStyle=orthogonalEdgeStyle;rounded=0;jumpStyle=arc;orthogonalLoop=1;jettySize=auto;html=1;entryX=0;entryY=0;entryDx=0;entryDy=0;strokeWidth=1;fontSize=6;startArrow=none;startFill=0;endArrow=open;endFill=0;exitX=0.593;exitY=0.223;exitDx=0;exitDy=0;exitPerimeter=0;" parent="iM5wBfxBL-h4ycN9MEfd-64" edge="1" target="0WxSvdHIYXs-hOeiicQz-1">
          <mxGeometry relative="1" as="geometry">
            <mxPoint x="165.15999999999985" y="55.232499999999845" as="sourcePoint" />
            <Array as="points">
              <mxPoint x="165" y="60" />
              <mxPoint x="175" y="60" />
            </Array>
            <mxPoint x="165.12999999999988" y="73.62499999999977" as="targetPoint" />
          </mxGeometry>
        </mxCell>
        <mxCell id="iM5wBfxBL-h4ycN9MEfd-66" value="" style="html=1;points=[];perimeter=orthogonalPerimeter;fillColor=#000000;strokeColor=none;rounded=1;strokeWidth=1;fontSize=6;rotation=90;" parent="iM5wBfxBL-h4ycN9MEfd-64" vertex="1">
          <mxGeometry x="148.75" y="15" width="2.5" height="80" as="geometry" />
        </mxCell>
        <mxCell id="iM5wBfxBL-h4ycN9MEfd-77" style="edgeStyle=orthogonalEdgeStyle;rounded=0;jumpStyle=arc;orthogonalLoop=1;jettySize=auto;html=1;strokeWidth=1;fontSize=6;startArrow=none;startFill=0;endArrow=open;endFill=0;entryX=0.5;entryY=0;entryDx=0;entryDy=0;exitX=0.162;exitY=0.954;exitDx=0;exitDy=0;exitPerimeter=0;" parent="iM5wBfxBL-h4ycN9MEfd-64" source="iM5wBfxBL-h4ycN9MEfd-70" target="0WxSvdHIYXs-hOeiicQz-2" edge="1">
          <mxGeometry relative="1" as="geometry">
            <mxPoint x="203.88999999999987" y="169.3225" as="targetPoint" />
            <Array as="points">
              <mxPoint x="204" y="155" />
              <mxPoint x="203" y="155" />
            </Array>
          </mxGeometry>
        </mxCell>
        <mxCell id="iM5wBfxBL-h4ycN9MEfd-70" value="Wert bestimmt" style="rounded=1;whiteSpace=wrap;html=1;strokeWidth=1;fontSize=6;" parent="iM5wBfxBL-h4ycN9MEfd-64" vertex="1">
          <mxGeometry x="192.5" y="115" width="70" height="25" as="geometry" />
        </mxCell>
        <mxCell id="GtZbbGRYXzcYxVhvn1fU-11" style="edgeStyle=orthogonalEdgeStyle;rounded=0;orthogonalLoop=1;jettySize=auto;html=1;entryX=0;entryY=0.5;entryDx=0;entryDy=0;fontSize=6;endArrow=open;endFill=0;" parent="iM5wBfxBL-h4ycN9MEfd-64" source="iM5wBfxBL-h4ycN9MEfd-69" target="0WxSvdHIYXs-hOeiicQz-2" edge="1">
          <mxGeometry relative="1" as="geometry">
            <Array as="points">
              <mxPoint x="150" y="180" />
            </Array>
            <mxPoint x="170.13" y="168.38500000000022" as="targetPoint" />
          </mxGeometry>
        </mxCell>
        <mxCell id="iM5wBfxBL-h4ycN9MEfd-69" value="Gewicht bestimmt" style="rounded=1;whiteSpace=wrap;html=1;strokeWidth=1;fontSize=6;" parent="iM5wBfxBL-h4ycN9MEfd-64" vertex="1">
          <mxGeometry x="110" y="115" width="70" height="25" as="geometry" />
        </mxCell>
        <mxCell id="iM5wBfxBL-h4ycN9MEfd-80" value="&quot;Item speichern&quot;-Button klicken&lt;br&gt;/Item speichern und der Liste hinzufügen" style="edgeStyle=orthogonalEdgeStyle;rounded=0;jumpStyle=arc;orthogonalLoop=1;jettySize=auto;html=1;entryX=0.5;entryY=0;entryDx=0;entryDy=0;strokeWidth=1;fontSize=6;startArrow=none;startFill=0;endArrow=open;endFill=0;exitX=0.872;exitY=0.517;exitDx=0;exitDy=0;exitPerimeter=0;" parent="iM5wBfxBL-h4ycN9MEfd-64" source="iM5wBfxBL-h4ycN9MEfd-74" target="iM5wBfxBL-h4ycN9MEfd-79" edge="1">
          <mxGeometry x="-0.0958" relative="1" as="geometry">
            <Array as="points">
              <mxPoint x="149" y="230" />
              <mxPoint x="55" y="230" />
            </Array>
            <mxPoint as="offset" />
          </mxGeometry>
        </mxCell>
        <mxCell id="iM5wBfxBL-h4ycN9MEfd-74" value="" style="html=1;points=[];perimeter=orthogonalPerimeter;fillColor=#000000;strokeColor=none;rounded=1;strokeWidth=1;fontSize=6;rotation=90;" parent="iM5wBfxBL-h4ycN9MEfd-64" vertex="1">
          <mxGeometry x="148.75" y="180" width="2.5" height="80" as="geometry" />
        </mxCell>
        <mxCell id="iM5wBfxBL-h4ycN9MEfd-79" value="Item gespeichert" style="rounded=1;whiteSpace=wrap;html=1;strokeWidth=1;fontSize=6;" parent="iM5wBfxBL-h4ycN9MEfd-64" vertex="1">
          <mxGeometry x="10" y="277" width="90" height="30" as="geometry" />
        </mxCell>
        <mxCell id="GtZbbGRYXzcYxVhvn1fU-14" style="edgeStyle=orthogonalEdgeStyle;rounded=0;orthogonalLoop=1;jettySize=auto;html=1;entryX=0.5;entryY=0;entryDx=0;entryDy=0;fontSize=6;endArrow=open;endFill=0;exitX=1;exitY=1;exitDx=0;exitDy=0;" parent="iM5wBfxBL-h4ycN9MEfd-64" source="0WxSvdHIYXs-hOeiicQz-1" target="GtZbbGRYXzcYxVhvn1fU-13" edge="1">
          <mxGeometry relative="1" as="geometry">
            <Array as="points">
              <mxPoint x="185" y="90" />
              <mxPoint x="315" y="90" />
            </Array>
            <mxPoint x="200.37" y="75.44999999999982" as="sourcePoint" />
          </mxGeometry>
        </mxCell>
        <mxCell id="GtZbbGRYXzcYxVhvn1fU-15" value="Anzahl eingeben&lt;br&gt;/Anzahl speichern" style="edgeLabel;html=1;align=center;verticalAlign=middle;resizable=0;points=[];fontSize=6;" parent="GtZbbGRYXzcYxVhvn1fU-14" vertex="1" connectable="0">
          <mxGeometry x="0.2845" relative="1" as="geometry">
            <mxPoint as="offset" />
          </mxGeometry>
        </mxCell>
        <mxCell id="5TJ54GziDkm0EzyZvKfk-1" style="edgeStyle=orthogonalEdgeStyle;rounded=0;orthogonalLoop=1;jettySize=auto;html=1;exitX=0.5;exitY=1;exitDx=0;exitDy=0;endArrow=open;endFill=0;" parent="iM5wBfxBL-h4ycN9MEfd-64" source="GtZbbGRYXzcYxVhvn1fU-10" edge="1">
          <mxGeometry relative="1" as="geometry">
            <Array as="points">
              <mxPoint x="260" y="258" />
              <mxPoint x="250" y="258" />
              <mxPoint x="250" y="290" />
              <mxPoint x="100" y="290" />
            </Array>
            <mxPoint x="100" y="290" as="targetPoint" />
          </mxGeometry>
        </mxCell>
        <mxCell id="5TJ54GziDkm0EzyZvKfk-3" value="&lt;font style=&quot;font-size: 6px;&quot;&gt;[Item ist vordefiniert]&lt;/font&gt;" style="edgeLabel;html=1;align=center;verticalAlign=middle;resizable=0;points=[];" parent="5TJ54GziDkm0EzyZvKfk-1" vertex="1" connectable="0">
          <mxGeometry x="-0.4804" y="-1" relative="1" as="geometry">
            <mxPoint as="offset" />
          </mxGeometry>
        </mxCell>
        <mxCell id="GtZbbGRYXzcYxVhvn1fU-12" style="edgeStyle=orthogonalEdgeStyle;rounded=0;orthogonalLoop=1;jettySize=auto;html=1;entryX=0.5;entryY=0;entryDx=0;entryDy=0;fontSize=6;endArrow=open;endFill=0;exitX=0.5;exitY=1;exitDx=0;exitDy=0;" parent="iM5wBfxBL-h4ycN9MEfd-64" source="0WxSvdHIYXs-hOeiicQz-2" target="GtZbbGRYXzcYxVhvn1fU-10" edge="1">
          <mxGeometry relative="1" as="geometry">
            <Array as="points">
              <mxPoint x="220" y="190" />
              <mxPoint x="220" y="190" />
            </Array>
            <mxPoint x="189.64999999999986" y="170.77750000000015" as="sourcePoint" />
          </mxGeometry>
        </mxCell>
        <mxCell id="iM5wBfxBL-h4ycN9MEfd-95" value="[Item ist selbsterstellt]" style="edgeStyle=orthogonalEdgeStyle;rounded=0;jumpStyle=arc;orthogonalLoop=1;jettySize=auto;html=1;strokeWidth=1;fontSize=6;startArrow=none;startFill=0;endArrow=open;endFill=0;exitX=0;exitY=0.5;exitDx=0;exitDy=0;entryX=-0.384;entryY=0.238;entryDx=0;entryDy=0;entryPerimeter=0;" parent="iM5wBfxBL-h4ycN9MEfd-64" source="GtZbbGRYXzcYxVhvn1fU-10" target="iM5wBfxBL-h4ycN9MEfd-74" edge="1">
          <mxGeometry x="-0.3087" y="10" relative="1" as="geometry">
            <mxPoint x="171.19636942675163" y="180" as="sourcePoint" />
            <mxPoint x="171.19" y="200" as="targetPoint" />
            <Array as="points">
              <mxPoint x="171" y="200" />
            </Array>
            <mxPoint as="offset" />
          </mxGeometry>
        </mxCell>
        <mxCell id="GtZbbGRYXzcYxVhvn1fU-10" value="" style="rhombus;whiteSpace=wrap;html=1;fontSize=6;" parent="iM5wBfxBL-h4ycN9MEfd-64" vertex="1">
          <mxGeometry x="240" y="190" width="20" height="20" as="geometry" />
        </mxCell>
        <mxCell id="GtZbbGRYXzcYxVhvn1fU-16" style="edgeStyle=orthogonalEdgeStyle;rounded=0;orthogonalLoop=1;jettySize=auto;html=1;entryX=1;entryY=0.5;entryDx=0;entryDy=0;fontSize=6;endArrow=open;endFill=0;" parent="iM5wBfxBL-h4ycN9MEfd-64" source="GtZbbGRYXzcYxVhvn1fU-13" target="0WxSvdHIYXs-hOeiicQz-2" edge="1">
          <mxGeometry relative="1" as="geometry">
            <Array as="points">
              <mxPoint x="315" y="150" />
              <mxPoint x="222" y="150" />
              <mxPoint x="222" y="180" />
            </Array>
            <mxPoint x="222.3699999999999" y="167.57499999999982" as="targetPoint" />
          </mxGeometry>
        </mxCell>
        <mxCell id="GtZbbGRYXzcYxVhvn1fU-13" value="Anzahl bestimmt" style="rounded=1;whiteSpace=wrap;html=1;strokeWidth=1;fontSize=6;" parent="iM5wBfxBL-h4ycN9MEfd-64" vertex="1">
          <mxGeometry x="280" y="115" width="70" height="25" as="geometry" />
        </mxCell>
        <mxCell id="0WxSvdHIYXs-hOeiicQz-1" value="" style="rhombus;whiteSpace=wrap;html=1;fontSize=6;" vertex="1" parent="iM5wBfxBL-h4ycN9MEfd-64">
          <mxGeometry x="170" y="60" width="20" height="20" as="geometry" />
        </mxCell>
        <mxCell id="0WxSvdHIYXs-hOeiicQz-2" value="" style="rhombus;whiteSpace=wrap;html=1;fontSize=6;" vertex="1" parent="iM5wBfxBL-h4ycN9MEfd-64">
          <mxGeometry x="192.5" y="170" width="20" height="20" as="geometry" />
        </mxCell>
        <mxCell id="iM5wBfxBL-h4ycN9MEfd-82" style="edgeStyle=orthogonalEdgeStyle;rounded=0;jumpStyle=arc;orthogonalLoop=1;jettySize=auto;html=1;entryX=0.081;entryY=1.026;entryDx=0;entryDy=0;entryPerimeter=0;strokeWidth=1;fontSize=6;startArrow=none;startFill=0;endArrow=open;endFill=0;exitX=0;exitY=0.5;exitDx=0;exitDy=0;" parent="iM5wBfxBL-h4ycN9MEfd-18" source="iM5wBfxBL-h4ycN9MEfd-79" target="iM5wBfxBL-h4ycN9MEfd-45" edge="1">
          <mxGeometry relative="1" as="geometry">
            <Array as="points">
              <mxPoint x="20" y="472" />
              <mxPoint x="20" y="110" />
              <mxPoint x="76" y="110" />
            </Array>
          </mxGeometry>
        </mxCell>
        <mxCell id="iM5wBfxBL-h4ycN9MEfd-91" style="edgeStyle=orthogonalEdgeStyle;rounded=0;jumpStyle=arc;orthogonalLoop=1;jettySize=auto;html=1;entryX=0.5;entryY=0;entryDx=0;entryDy=0;entryPerimeter=0;strokeWidth=1;fontSize=6;startArrow=none;startFill=0;endArrow=open;endFill=0;" parent="iM5wBfxBL-h4ycN9MEfd-18" source="iM5wBfxBL-h4ycN9MEfd-84" target="iM5wBfxBL-h4ycN9MEfd-87" edge="1">
          <mxGeometry relative="1" as="geometry" />
        </mxCell>
        <mxCell id="iM5wBfxBL-h4ycN9MEfd-84" value="Itemeditor" style="rounded=1;whiteSpace=wrap;html=1;strokeWidth=1;fontSize=6;" parent="iM5wBfxBL-h4ycN9MEfd-18" vertex="1">
          <mxGeometry x="430" y="27.5" width="80" height="25" as="geometry" />
        </mxCell>
        <mxCell id="iM5wBfxBL-h4ycN9MEfd-87" value="" style="strokeWidth=1;html=1;shape=mxgraph.flowchart.decision;whiteSpace=wrap;rounded=1;fontSize=6;" parent="iM5wBfxBL-h4ycN9MEfd-18" vertex="1">
          <mxGeometry x="550" y="185" width="30" height="30" as="geometry" />
        </mxCell>
        <mxCell id="iM5wBfxBL-h4ycN9MEfd-97" value="[selbsterstelltes Item]" style="edgeStyle=orthogonalEdgeStyle;rounded=0;jumpStyle=arc;orthogonalLoop=1;jettySize=auto;html=1;strokeWidth=1;fontSize=6;startArrow=none;startFill=0;endArrow=open;endFill=0;entryX=0.2;entryY=0.152;entryDx=0;entryDy=0;entryPerimeter=0;exitX=0;exitY=0.5;exitDx=0;exitDy=0;exitPerimeter=0;" parent="iM5wBfxBL-h4ycN9MEfd-18" source="iM5wBfxBL-h4ycN9MEfd-87" target="iM5wBfxBL-h4ycN9MEfd-66" edge="1">
          <mxGeometry x="-0.6547" y="-5" relative="1" as="geometry">
            <mxPoint x="350" y="250" as="targetPoint" />
            <Array as="points">
              <mxPoint x="410" y="205" />
              <mxPoint x="410" y="220" />
              <mxPoint x="208" y="220" />
            </Array>
            <mxPoint as="offset" />
          </mxGeometry>
        </mxCell>
        <mxCell id="iM5wBfxBL-h4ycN9MEfd-99" value="[vordefiniertes Item]" style="edgeStyle=orthogonalEdgeStyle;rounded=0;jumpStyle=arc;orthogonalLoop=1;jettySize=auto;html=1;strokeWidth=1;fontSize=6;startArrow=none;startFill=0;endArrow=open;endFill=0;entryX=1;entryY=0.5;entryDx=0;entryDy=0;" parent="iM5wBfxBL-h4ycN9MEfd-18" source="iM5wBfxBL-h4ycN9MEfd-87" target="0WxSvdHIYXs-hOeiicQz-1" edge="1">
          <mxGeometry x="-0.8392" y="10" relative="1" as="geometry">
            <mxPoint x="219.32999999999993" y="254.32500000000005" as="targetPoint" />
            <Array as="points">
              <mxPoint x="565" y="220" />
              <mxPoint x="470" y="220" />
              <mxPoint x="470" y="250" />
            </Array>
            <mxPoint as="offset" />
          </mxGeometry>
        </mxCell>
        <mxCell id="iM5wBfxBL-h4ycN9MEfd-101" value="/Leveleditorseite resetten" style="edgeStyle=orthogonalEdgeStyle;rounded=0;jumpStyle=arc;orthogonalLoop=1;jettySize=auto;html=1;strokeWidth=1;fontSize=6;startArrow=none;startFill=0;endArrow=open;endFill=0;entryX=1;entryY=0.5;entryDx=0;entryDy=0;exitX=0.5;exitY=1;exitDx=0;exitDy=0;" parent="iM5wBfxBL-h4ycN9MEfd-18" source="iM5wBfxBL-h4ycN9MEfd-48" target="iM5wBfxBL-h4ycN9MEfd-18" edge="1">
          <mxGeometry x="0.0322" relative="1" as="geometry">
            <mxPoint x="600" y="270" as="targetPoint" />
            <Array as="points">
              <mxPoint x="445" y="360" />
              <mxPoint x="620" y="360" />
              <mxPoint x="620" y="260" />
            </Array>
            <mxPoint as="offset" />
          </mxGeometry>
        </mxCell>
        <mxCell id="GtZbbGRYXzcYxVhvn1fU-6" style="edgeStyle=orthogonalEdgeStyle;rounded=0;orthogonalLoop=1;jettySize=auto;html=1;exitX=0;exitY=0;exitDx=0;exitDy=0;entryX=0.894;entryY=0.967;entryDx=0;entryDy=0;entryPerimeter=0;fontSize=6;endArrow=open;endFill=0;" parent="iM5wBfxBL-h4ycN9MEfd-18" source="GtZbbGRYXzcYxVhvn1fU-3" target="iM5wBfxBL-h4ycN9MEfd-45" edge="1">
          <mxGeometry relative="1" as="geometry">
            <Array as="points">
              <mxPoint x="270" y="90" />
              <mxPoint x="270" y="80" />
              <mxPoint x="142" y="80" />
            </Array>
          </mxGeometry>
        </mxCell>
        <mxCell id="GtZbbGRYXzcYxVhvn1fU-3" value="&lt;font style=&quot;font-size: 6px;&quot;&gt;Rucksackgrößenbestimmung&lt;/font&gt;" style="rounded=1;whiteSpace=wrap;html=1;" parent="iM5wBfxBL-h4ycN9MEfd-18" vertex="1">
          <mxGeometry x="250" y="90" width="90" height="20" as="geometry" />
        </mxCell>
        <mxCell id="iM5wBfxBL-h4ycN9MEfd-25" style="edgeStyle=orthogonalEdgeStyle;rounded=0;jumpStyle=arc;orthogonalLoop=1;jettySize=auto;html=1;fontSize=6;endArrow=none;endFill=0;startArrow=open;startFill=0;" parent="1" edge="1">
          <mxGeometry relative="1" as="geometry">
            <mxPoint x="230" y="-235" as="sourcePoint" />
            <mxPoint x="440" y="-380" as="targetPoint" />
            <Array as="points">
              <mxPoint x="230" y="-280" />
              <mxPoint x="440" y="-280" />
            </Array>
          </mxGeometry>
        </mxCell>
        <mxCell id="iM5wBfxBL-h4ycN9MEfd-26" value="Zurück-Button klicken&lt;br&gt;/Homescreen öffnen" style="edgeLabel;html=1;align=center;verticalAlign=middle;resizable=0;points=[];fontSize=6;" parent="iM5wBfxBL-h4ycN9MEfd-25" vertex="1" connectable="0">
          <mxGeometry x="-0.0435" y="1" relative="1" as="geometry">
            <mxPoint x="81" y="-58" as="offset" />
          </mxGeometry>
        </mxCell>
        <mxCell id="iM5wBfxBL-h4ycN9MEfd-105" value="&quot;Reset&quot;-Button drücken&lt;br&gt;/Level neu laden" style="edgeStyle=orthogonalEdgeStyle;jumpStyle=arc;orthogonalLoop=1;jettySize=auto;html=1;entryX=0.955;entryY=-0.001;entryDx=0;entryDy=0;entryPerimeter=0;strokeWidth=1;fontSize=6;startArrow=none;startFill=0;endArrow=open;endFill=0;curved=1;" parent="1" target="Y8kZHkkbkPLD9dmNPPJZ-25" edge="1">
          <mxGeometry relative="1" as="geometry">
            <mxPoint x="730" y="100" as="sourcePoint" />
            <Array as="points">
              <mxPoint x="760" y="100" />
              <mxPoint x="760" y="40" />
              <mxPoint x="708" y="40" />
            </Array>
          </mxGeometry>
        </mxCell>
      </root>
    </mxGraphModel>
  </diagram>
</mxfile>
